<?xml version="1.0" encoding="utf-8"?>
<!-- Generator: Adobe Illustrator 21.0.0, SVG Export Plug-In . SVG Version: 6.00 Build 0)  -->
<svg version="1.1" id="Layer_1" xmlns="http://www.w3.org/2000/svg" xmlns:xlink="http://www.w3.org/1999/xlink" x="0px" y="0px"
	 viewBox="0 0 200 107" style="enable-background:new 0 0 200 107;" xml:space="preserve">
<style type="text/css">
	.st0{fill:#231F20;}
</style>
<path class="st0" d="M200,88.9v-0.3h-0.2v-0.5h-0.2v-1.8h-0.1v-0.7h-0.4v0.7h-1v1.8h-1.8v0.5h-2.4v0.3h-0.4v8.6h-1v-0.2h-0.1v-0.2
	h-1.9v0.2h-0.2v-8.5H190v-5l-0.3-0.2v-2h-2.8v0.4l-1.6-1l-4.7,2.8v10.5h-0.8v-1.5h-0.8v-1h-1.6v1h-0.2v1.5h-0.3V97h-0.8v1.9h-0.8
	v-4.2l-0.4-1.4h-2.5c0,0-0.2-0.7-0.7-1.1v-0.6l-0.2-0.4l-0.2,0.3h-0.1v-1.6l0,0v-0.3h0.1v-0.5h-0.2v-0.9h-0.4v0.4l-0.3-0.2
	c0,0,0.5-3.9-3.3-6.8v-0.3l-0.1-0.1v-0.2h0.1V81H167v-2.2l0.1-0.1v-0.5H167c0,0,0.1-0.8-0.8-2l-0.1-1.2H166l-0.2,1.2
	c0,0-0.7,0.6-0.7,1.9H165v0.5l0.1,0.1V81H165v0.3h0.1v0.3l-0.1,0.2V82c0,0-2,1.9-2.2,2.8h-0.2v-1.6l-0.1-0.1v-0.6l-0.4-0.6v-0.5
	l-0.1-0.1l0-1l0.2-0.2l-0.2-1.6l-0.8-1c0,0-0.1-5.2-5.2-9v-0.3l-0.7-0.7v-1l0.1,0v-0.3l-0.2-0.2v-2.2l0.1-0.1v-0.5l0.1-0.1l0-0.4
	l-0.1-0.1v-0.8c0,0,0-1.2-1-2l-0.2-1.8h0h0l-0.2,1.8c-1,0.7-1,2-1,2v0.8l-0.1,0.1l0,0.4l0.1,0.1v0.5l0.1,0.1v2.2l-0.2,0.2v0.3l0.1,0
	v1l-0.7,0.7v0.3c-5.2,3.8-5.2,9-5.2,9l-0.8,1l-0.2,1.6l0.2,0.2l0,1l-0.1,0.1V82l-0.4,0.6v0.6l-0.1,0.1v1.6h-0.2
	c-0.2-1-2.2-2.8-2.2-2.8v-0.3l-0.1-0.2v-0.3h0.1V81h-0.1v-2.2l0.1-0.1v-0.5h-0.1c-0.1-1.3-0.7-1.9-0.7-1.9l-0.2-1.2h-0.1l-0.1,1.2
	c-0.9,1.1-0.8,2-0.8,2h-0.1v0.5l0.1,0.1V81h-0.1v0.4h0.1v0.2l-0.1,0.1v0.3c-3.7,2.9-3.3,6.8-3.3,6.8l-0.3,0.2v-0.4h-0.4v0.9h-0.2
	v0.5h0.1V90l0,0v1.6h-0.1l-0.2-0.3l-0.2,0.4v0.6c-0.5,0.3-0.7,1.1-0.7,1.1h-0.3v-4.6h-0.8v4.6h-0.1v-3.5H134v0.5h-3.1V90h0.6v-0.9
	h-0.6v-0.7h0.6v-0.9h-0.6v-0.7h0.6V86h-0.6v-0.7h0.6v-0.9h-0.6v-0.7h0.6v-0.9h-0.6v-0.7h0.6v-0.9h-0.6v-0.7h0.6v-0.9h-0.6V79h0.6
	v-0.9h-0.6v-0.7h0.6v-0.9h-0.6v-0.7h0.6V75h-0.6v-0.7h0.6v-0.9h-0.6v-0.7h0.6v-0.9h-0.6v-0.7h0.6v-0.9h-0.6v-0.7h0.6v-0.9h-0.6V68
	h0.6v-0.9h-0.6v-0.7h0.6v-0.9h-0.6v-0.7h0.6V64h-0.6v-0.7h0.6v-0.9h-0.6v-0.7h0.6v-0.9h-0.6v-0.7h0.6v-0.9h-0.6v-0.7h0.6v-0.9h-0.6
	v-0.7h0.6v-0.9h-0.6v-0.6h-5.2v-0.4h-3v-4.6l-2.2,2.4v2.1h-0.7v0.4h-0.2v25.9h-1.7V81h-0.2v-0.6h-1.4V81h-1.6v0.4h-0.2v11.3h-0.2
	v-0.5h-4.6v0.5h-1.1v5.7c-1.5-2.6-6.9-12.9-6.9-12.9l0.2-1.9v-0.5h-0.1V81h-2.1c0,0-1.2-3.2-1.7-5.1c-0.6-1.8-2.8-10.2-2.8-10.2
	s0.2-0.3,0.6-0.3l0.5-1.8h-0.1v-0.8h-1.6c0,0-1.4-9.6-1.7-12.7c-0.4-5.3-1.2-18.4-1.9-32c0,0-0.3-2.3,0.8-3.4v-2.4l-0.3-0.2v-1.1
	l-0.3-0.2v-0.5h0.2V9.8h-0.3c0,0-0.1-1.1-1.2-1.3V7.6h-0.3V4.5l-0.2-0.2L89.2,0h-0.1L89,4.3l-0.2,0.2v3.1h-0.3v0.9
	c-1.1,0.2-1.2,1.3-1.2,1.3H87v0.6h0.2v0.5l-0.3,0.2v1.1l-0.3,0.2v2.4c1.1,1.1,0.8,3.4,0.8,3.4c-0.7,13.6-1.6,26.7-1.9,32
	c-0.2,3.1-1.7,12.7-1.7,12.7h-1.6v0.8h-0.1l0.5,1.8c0.3,0,0.6,0.3,0.6,0.3S81,74,80.4,75.9c-0.6,1.8-1.7,5.1-1.7,5.1h-2.1v2.3h-0.1
	v0.5l0.2,1.9c0,0-2.2,4.2-4.2,7.9v-2h0.1v-0.2h0.1v-0.4h0.2v-0.2h-0.3v-0.9l0,0v-0.3h0.3v-0.2l0.2-0.2v-0.2l0.2-0.2v-0.1h-0.7v-0.5
	h-0.1v-1.3h0.1v-0.2l0.3-0.2v-0.3h-0.4v-0.4h-0.4v0.2h-1.4v-0.2h-0.4v0.2H69v-0.2h-0.3v0.2h-1.4v-0.2h-0.4v0.2h-1.3v-0.2h-0.4v0.2
	h-1.4v-0.2h-0.4v0.2h-0.6h0h-0.6v-0.2h-0.4v0.2h-1.4v-0.2H60v0.2h-1.3v-0.2h-0.4v0.2h-1.4v-0.2h-0.3v0.2h-1.4v-0.2h-0.3v0.2h-1.4
	v-0.2h-0.4v0.4h-0.4v0.3l0.3,0.2v0.2h0.1v1.3H53v0.5h-0.7v0.1l0.2,0.2v0.2l0.2,0.2v0.2h0.3v0.3l0,0v0.9h-0.3v0.2H53v0.4h0.1v0.2h0.1
	v3.8h-0.3v0.1l0.2,0.2v0.6h0.1v3.8h-0.4v-2.5l-1.8-1l-0.5,0.2v-6.4l-2-1l-0.9,0.5v-8.7l-3.8-2v14.4h-1.6v-8.2l-5-2.2L32,85.3V100
	h-0.7v-9H31v0.5h-0.4v-1.6h0.2v-0.3l-0.3-0.3v-1.6l0.3-0.3v-0.2h-0.2v-0.6h-0.1v-2.2h0.1v-0.5h0.3v-0.2h-0.3v-0.9h0.6v-0.2h-0.3
	v-1.4h-0.2v0.5h-0.6V75l0.1-0.1v-1.3h-0.1v-0.6h-0.4v0.5h-0.2v-0.8h0.2v-0.6h0.1v-0.6h-0.2v-0.4h0.2v-0.3l-0.5-0.5h-0.5V70h-0.2
	l-0.2-0.5v-0.6h-0.1v0.6L27.9,70h-0.2v0.7h-6.1L21.1,71v0.5l-0.3,0.3l0,0.4v0.7h-0.5v1.2h-0.2v0.3h0.2V76v5.7h-2L18,77.7v-0.8h0.1
	v-0.3H18l-0.1-2l-0.1,2h-0.1v0.3h0.1v0.8l-0.3,3.9h-2V76v-1.5h0.2v-0.3h-0.2v-1.2H15v-0.7l0-0.4l-0.3-0.3V71l-0.4-0.3H8.2V70H7.9
	l-0.2-0.5v-0.6H7.6v0.6L7.4,70H7.2v0.5H6.7l-0.5,0.5v0.3h0.2v0.4H6.2v0.6h0.1v0.6h0.2v0.8H6.3v-0.5H5.9v0.6H5.7v1.3L5.8,75v6.8H5.2
	v-0.5H5v1.4H4.7v0.2h0.6v0.9H4.9v0.2h0.3v0.5h0.1v2.2H5.2v0.6H5.1v0.2l0.3,0.3v1.6L5,89.6v0.3h0.2v1.6H4.8V91H4.5v8.5H3.8v-0.4H2.4
	v-1.5H2.1v-3H1v3h-1.1v10h200.8V88.9H200z M60.3,103.3h0.3v1.5h-0.3V103.3z M62,101.2h0.3v0.2H62V101.2z M62,101v-0.2h0.3v0.2H62z
	 M62,100.5v-0.2h0.3v0.2H62z M62,100.1v-0.2h0.3v0.2H62z M62,99.7v-0.2h0.3v0.2H62z M62,99.3v-0.2h0.3v0.2H62z M62,98.9v-0.2h0.3
	v0.2H62z M62,98.5v-0.2h0.3v0.2H62z M62.3,98.1H62v-0.2h0.3V98.1z M62,101.6h0.3v0.2H62V101.6z M86.7,68h4.9c0,0,0.4,4.4,2.2,12.9
	h-9.2C86.3,72.3,86.7,68,86.7,68z M89.2,89.3c0,0,11.2,0.1,13.6,11.6h-1.3v-0.5H96v0.5h-2v-7.5h-0.4V93h-4.4v0.4h-1.7v8.7h-1.3v-6.3
	h-0.2v-0.3h-0.2v-0.4h-1.1v0.4h-1.1v0.3h-1.3v3.5h-4.4v2.1h-2.3C77.6,89.5,89.2,89.3,89.2,89.3z M59.4,96.2L59.4,96.2l0.1-0.7h0.1
	v-0.2h-0.2c0.3-3.1,3.2-3.1,3.2-3.1c0.1,0.1,0.2,0.1,0.2,0.1s0.2,0,0.2-0.1c0,0,2.9,0,3.2,3.1H66v0.2h0.1v0.7h0.1v6.6
	c-0.2,0.2-0.3,0.3-0.3,0.3h0.3v1.1l-0.1,0.2v0.4h-0.4v-1v-1.7h-0.7v1.7h-0.1v-7.9h-2.7v1.8H62v-0.2h-1.4v4.9h-0.3v-0.4h-0.8v2.9
	h-0.1v-0.4l-0.1-0.2V96.2z"/>
</svg>
